<?xml version="1.0" standalone="no"?>
<!DOCTYPE svg PUBLIC "-//W3C//DTD SVG 20010904//EN"
 "http://www.w3.org/TR/2001/REC-SVG-20010904/DTD/svg10.dtd">
<svg version="1.0" xmlns="http://www.w3.org/2000/svg"
 width="700.000000pt" height="700.000000pt" viewBox="0 0 700.000000 700.000000"
 preserveAspectRatio="xMidYMid meet">
<metadata>
Created by potrace 1.11, written by Peter Selinger 2001-2013
</metadata>
<g transform="translate(0.000000,700.000000) scale(0.100000,-0.100000)"
fill="#000000" stroke="none">
<path d="M2797 5694 c-1 -1 -21 -4 -44 -7 -23 -2 -68 -17 -99 -33 -94 -48
-154 -116 -189 -214 -20 -55 -24 -86 -40 -290 -3 -41 -8 -93 -10 -115 -6 -44
-14 -132 -20 -213 -4 -57 -13 -153 -20 -217 -3 -22 -7 -68 -10 -102 -9 -109
-16 -187 -20 -223 -5 -41 -17 -178 -20 -235 -2 -22 -4 -40 -5 -40 0 0 -3 -31
-6 -70 -2 -38 -7 -81 -9 -95 -3 -14 -8 -78 -10 -142 -4 -103 -2 -124 16 -175
52 -138 154 -229 286 -252 26 -4 158 -8 291 -7 134 0 248 -2 253 -5 10 -6 8
-22 -9 -84 -6 -22 -13 -51 -16 -65 -3 -14 -19 -77 -36 -140 -17 -63 -32 -126
-35 -140 -2 -14 -29 -122 -60 -240 -30 -118 -57 -224 -60 -235 -2 -11 -21 -85
-41 -165 -41 -161 -46 -225 -27 -302 51 -200 249 -320 449 -275 36 9 118 54
150 84 32 30 87 106 104 145 6 13 23 46 38 73 15 28 47 86 71 130 24 44 58
107 76 140 63 116 108 201 148 275 108 203 158 296 167 310 9 14 55 101 116
220 16 30 31 57 34 60 3 3 23 39 45 80 21 41 52 98 67 125 15 28 43 82 64 120
41 78 93 174 134 250 32 57 82 152 148 275 24 47 48 90 52 95 17 25 32 106 32
170 -2 114 -50 217 -137 292 -89 76 -136 85 -447 86 -142 0 -258 2 -258 4 0 3
9 41 21 86 11 45 22 89 24 97 2 8 13 49 24 90 40 150 83 315 87 333 2 9 7 27
10 40 16 55 16 174 0 227 -36 122 -127 216 -245 255 -50 16 -103 18 -544 19
-269 1 -489 0 -490 0z m985 -273 c31 -16 67 -85 63 -121 -2 -14 -22 -97 -45
-185 -23 -88 -54 -209 -70 -270 -34 -130 -81 -315 -85 -330 -1 -5 -5 -17 -8
-25 -3 -8 -11 -37 -17 -65 -6 -27 -13 -61 -17 -75 -16 -69 -54 -63 402 -65
226 -1 419 -5 431 -9 11 -4 32 -25 46 -48 32 -48 30 -95 -5 -159 -13 -24 -42
-78 -64 -119 -22 -41 -70 -129 -105 -195 -36 -66 -87 -160 -113 -210 -26 -49
-56 -103 -65 -120 -28 -49 -112 -207 -133 -250 -11 -22 -22 -42 -26 -45 -3 -3
-19 -30 -33 -60 -15 -30 -43 -82 -61 -115 -19 -33 -64 -119 -102 -190 -38 -72
-71 -132 -74 -135 -3 -3 -21 -34 -38 -70 -18 -36 -51 -99 -74 -140 -23 -41
-61 -111 -84 -155 -23 -44 -62 -116 -86 -160 -23 -44 -57 -107 -75 -140 -38
-71 -82 -105 -134 -105 -68 0 -126 69 -116 138 3 21 19 90 35 154 17 65 33
128 35 140 3 13 35 140 71 283 37 143 68 267 70 275 2 8 8 35 15 60 7 25 14
52 15 60 2 8 17 69 35 135 53 205 100 396 100 406 0 8 -41 9 -310 9 -47 0
-181 0 -299 0 -121 0 -228 4 -245 10 -39 13 -74 64 -77 110 -1 19 1 67 5 105
3 39 8 93 11 120 2 28 6 73 9 100 3 28 8 77 11 110 4 58 12 137 20 220 2 22 7
72 10 110 3 39 7 90 10 115 2 25 7 74 10 110 3 36 8 81 10 100 2 19 7 73 11
120 3 47 8 99 9 115 2 17 6 64 9 105 3 41 8 91 11 110 2 19 7 62 10 95 8 92
16 109 71 146 21 13 85 15 511 14 387 -1 494 -4 515 -14z"/>
<path d="M1747 4776 c-9 -7 -47 -40 -84 -72 -36 -32 -75 -67 -87 -77 -12 -10
-32 -28 -46 -41 -14 -12 -82 -71 -150 -132 -69 -60 -132 -116 -140 -124 -9 -8
-45 -40 -80 -70 -35 -30 -68 -60 -74 -65 -9 -9 -171 -151 -295 -260 -18 -16
-39 -34 -45 -40 -6 -5 -67 -59 -136 -120 -69 -60 -130 -114 -136 -120 -6 -5
-39 -35 -73 -65 -69 -60 -84 -81 -75 -104 3 -8 94 -93 201 -188 108 -95 201
-178 207 -183 6 -6 70 -62 141 -125 72 -63 135 -119 141 -125 6 -6 35 -31 64
-56 28 -24 62 -53 74 -64 87 -79 201 -179 276 -243 30 -26 69 -61 86 -78 18
-18 42 -38 53 -46 11 -8 44 -37 74 -64 98 -89 117 -104 136 -104 17 0 72 50
131 120 12 14 34 39 49 55 30 32 51 67 51 84 0 13 -16 29 -85 88 -28 23 -61
52 -75 63 -35 30 -108 92 -155 131 -22 19 -51 44 -65 55 -14 12 -61 52 -105
89 -44 37 -100 84 -125 106 -25 21 -55 47 -66 56 -35 29 -123 104 -199 168
-38 33 -113 96 -165 140 -52 44 -108 92 -125 107 l-30 28 30 28 c29 26 138
119 180 153 23 19 108 91 145 122 14 12 59 50 100 85 41 35 98 83 125 107 28
23 131 111 230 195 99 83 203 171 230 195 28 23 70 60 95 80 25 21 49 44 53
51 10 18 2 45 -21 71 -9 11 -42 48 -72 83 -107 123 -125 135 -163 106z"/>
<path d="M5044 4737 c-123 -133 -159 -180 -157 -205 1 -14 4 -25 5 -26 5 -3
122 -100 128 -106 3 -3 48 -41 100 -85 52 -44 100 -84 106 -90 6 -5 32 -28 59
-50 27 -22 65 -54 84 -71 20 -17 47 -39 60 -50 13 -10 28 -23 35 -29 75 -66
99 -86 146 -125 29 -25 90 -76 134 -114 45 -37 92 -78 106 -90 14 -11 52 -44
85 -72 33 -28 71 -59 83 -70 71 -58 68 -53 46 -68 -10 -8 -31 -24 -45 -37 -14
-13 -47 -42 -74 -64 -26 -22 -64 -54 -84 -72 -20 -17 -58 -50 -86 -73 -27 -23
-61 -52 -75 -64 -14 -11 -81 -68 -150 -126 -69 -58 -138 -117 -155 -131 -16
-15 -82 -70 -145 -124 -63 -53 -126 -106 -140 -118 -14 -12 -52 -44 -85 -72
-33 -27 -71 -60 -85 -72 -14 -13 -28 -23 -31 -23 -4 0 -12 -13 -17 -30 -12
-34 -12 -35 121 -183 53 -58 86 -87 101 -87 12 0 57 32 106 77 97 87 141 126
230 203 35 30 78 69 96 85 17 17 53 48 79 70 26 22 62 54 80 70 17 17 59 53
91 81 32 29 70 62 85 75 14 13 54 49 90 79 35 30 69 60 74 66 6 6 64 58 130
115 66 57 125 109 131 114 6 6 41 37 79 70 173 153 185 165 185 185 0 22 -27
50 -190 190 -93 80 -135 118 -154 136 -11 11 -55 49 -96 85 -41 35 -93 80
-115 100 -22 20 -52 47 -66 60 -15 13 -55 49 -89 79 -35 30 -68 59 -74 65 -6
5 -42 37 -81 70 -38 33 -76 67 -85 75 -32 29 -202 179 -250 220 -14 12 -43 38
-65 59 -92 85 -176 151 -194 151 -10 0 -40 -24 -67 -53z"/>
</g>
</svg>
