<?xml version="1.0" encoding="utf-8"?>
<!-- Generator: Adobe Illustrator 16.0.0, SVG Export Plug-In . SVG Version: 6.00 Build 0)  -->
<!DOCTYPE svg PUBLIC "-//W3C//DTD SVG 1.1//EN" "http://www.w3.org/Graphics/SVG/1.1/DTD/svg11.dtd">
<svg version="1.1" id="Layer_1" xmlns="http://www.w3.org/2000/svg" xmlns:xlink="http://www.w3.org/1999/xlink" x="0px" y="0px"
	 viewBox="0 0 700 500" enable-background="new 0 0 700 500" xml:space="preserve">
<path fill="#04a7e3" d="M181.654,377.434l18.066-20.41c1.855-2.051,1.562-5.176-0.488-6.934L81.068,249.993l118.164-100.098
	c2.051-1.758,2.344-4.883,0.488-6.934l-18.066-20.41c-1.758-2.051-4.883-2.246-6.934-0.391L33.998,246.379
	c-2.246,1.954-2.246,5.372,0,7.324L174.72,377.922C176.771,379.68,179.896,379.484,181.654,377.434L181.654,377.434z
	 M514.569,377.795l140.723-124.219c2.246-1.951,2.246-5.37,0-7.323L514.569,122.132c-2.051-1.758-5.078-1.562-6.934,0.391
	l-18.066,20.41c-1.855,2.051-1.562,5.176,0.488,6.934l118.164,100.098L490.058,350.061c-2.051,1.758-2.344,4.883-0.488,6.934
	l18.066,20.41C509.394,379.455,512.519,379.65,514.569,377.795z M372.267,56.276c8.101,0,14.005,7.983,11.904,16.099l-25.618,98.956
	h79.865c9.38,0,15.333,10.531,10.758,19.023L332.13,407.671c-2.183,4.045-6.303,6.551-10.772,6.553
	c-7.815,0-14.01-7.742-11.907-16.039l38.054-150.151h-81.594c-7.248,0-12.956-6.488-12.27-13.991l15.188-166.189
	c0.577-6.575,5.904-11.602,12.27-11.577H372.267 M372.267,30.709h-91.167c-19.07,0-35.011,15.041-36.811,34.731l-15.188,166.19
	c-2.058,22.51,15.03,41.972,36.811,41.972h49.626L285.61,391.684c-6.198,24.456,11.718,48.107,35.748,48.107
	c13.052,0,25.582-7.195,32.291-19.649l117.048-217.318c13.755-25.531-4.077-57.06-32.278-57.06h-47.723l17.282-66.757
	C414.271,54.7,396.614,30.709,372.267,30.709z"/>
<line fill="none" x1="88.386" y1="125.035" x2="87.947" y2="124.597"/>
</svg>
